# xmcd CD database file
#
# Track frame offsets:
#	150
#	21480
#	53765
#
# Disc length: 4440 seconds
#
# Revision: 0
# Processed by: cddbd v1.5.1PL0 Copyright (c) Steve Scherf et al.
# Submitted via: CDex 1.51
#
DISCID=20115603
DTITLE=Janne Da Arc - ROMANCE
DYEAR=2004
DGENRE=JPop
TTITLE0=ROMANCE
TTITLE1=OASIS -Live at Hirakata West High School November 18th, 2003-
TTITLE2=CCCD
EXTD=YEAR: 2004
EXTT0=
EXTT1=
EXTT2=
PLAYORDER=
